<svg width="983" height="229" viewBox="0 0 983 229" fill="none" xmlns="http://www.w3.org/2000/svg">
<path d="M397.845 144.242C398.468 140.071 397.908 132.602 397.999 127.959C399.17 68.8042 427.631 -1.40574 497.17 0.0214062C551.846 1.14341 563.39 35.0215 562.349 83.396L562.987 83.6558C564.177 85.0094 564.07 86.1654 563.985 87.9871C562.79 113.975 557.78 148.16 537.518 165.97C529.385 173.179 518.733 176.877 507.891 176.257C497.234 175.558 493.813 171.516 490.322 162.294C484.606 169.662 478.964 175.239 469.037 176.534C462.694 177.342 456.292 175.572 451.265 171.621C443.103 165.225 440.68 152.813 441.441 142.941C441.815 141.042 441.98 129.979 442.332 126.527C444.226 108.319 446.818 88.6203 455.301 72.2185C464.679 54.088 491.916 48.8249 498.073 72.7885C499.438 68.2155 500.049 62.1433 500.597 57.3392C504.406 57.4428 520.003 56.8691 522.633 57.7998L523.01 58.8762C526.065 63.4125 522.197 82.7479 521.448 88.9768L514.452 146.189C518.505 150.786 525.943 145.309 528.827 141.959C541.721 126.985 544.063 100.224 543.298 81.5207C541.848 65.2936 541.636 50.5297 528.158 38.9179C518.324 30.4494 501.431 27.9079 488.952 29.1936C471.794 30.9615 455.856 37.1742 444.876 50.9318C436.194 61.8129 431.894 72.7269 427.57 85.6793L425.558 93.6916C423.673 103.896 421.622 113.46 421.218 123.885C421.039 128.518 421.611 141.784 419.963 145.37C419.784 152.466 423.457 164.702 426.541 171.306C443.951 208.59 501.298 205.611 529.438 184.405C529.879 185.049 529.842 185.369 529.874 186.129C532.525 190.159 530.15 206.105 529.789 211.574C529.916 211.972 530.028 212.71 530.102 213.15C529.932 213.458 529.502 214.135 529.247 214.326C516.423 223.873 492.814 228.513 477.482 228.403C456.551 228.253 433.799 222.268 419.164 207.237C403.361 191.007 397.745 166.048 397.845 144.242ZM466.172 139.451C468.165 148.939 479.543 150.217 485.668 143.761C493.473 135.446 493.377 123.258 494.7 112.63C495.151 108.995 495.64 104.595 495.598 101.01C494.795 94.3419 493.037 82.9226 482.539 85.9577C477.269 87.4824 474.082 94.046 471.892 98.7911C469.181 110.502 467.389 121.834 466.88 133.87C466.81 135.53 466.716 137.92 466.172 139.451Z" fill="#095BA6"/>
<path d="M562.349 83.396L562.987 83.6558C564.177 85.0094 564.07 86.1654 563.985 87.9871C562.79 113.975 557.78 148.16 537.518 165.97C529.385 173.179 518.733 176.877 507.891 176.257C497.234 175.558 493.813 171.515 490.322 162.294C484.606 169.662 478.964 175.239 469.037 176.534C462.694 177.342 456.292 175.572 451.265 171.621C443.103 165.225 440.68 152.813 441.441 142.941C442.683 144.939 443.023 147.427 443.669 149.647C446.475 159.285 450.051 163.792 459.939 166.507C472.61 169.989 485.02 160.877 490.731 150.346C491.486 152.902 492.638 158.125 493.51 160.208C499.991 165.597 506.488 166.955 514.792 165.796C547.012 161.303 558.062 122.914 560.814 95.3906C561.17 91.8492 561.473 86.7131 562.349 83.396Z" fill="#E42528"/>
<path d="M562.349 83.396L562.987 83.6558C563.39 88.1602 562.333 92.9909 561.807 97.6478C558.657 125.601 546.799 163.91 513.867 167.602C506.764 168.399 497.175 167.327 493.51 160.208C499.991 165.597 506.488 166.955 514.792 165.796C547.012 161.303 558.062 122.914 560.814 95.3906C561.17 91.8492 561.473 86.7131 562.349 83.396Z" fill="white"/>
<path d="M424.398 84.4388C424.429 84.0925 424.446 83.9496 424.519 83.6037C428.785 62.4292 439.746 41.6695 458.184 29.7172C479.718 15.7559 520.795 14.254 535.733 38.7241C542.204 49.3285 546.072 69.3928 543.298 81.5207C541.848 65.2937 541.636 50.5297 528.158 38.9179C518.324 30.4494 501.431 27.9079 488.952 29.1936C471.794 30.9615 455.856 37.1742 444.876 50.9318C436.194 61.8129 431.894 72.7269 427.57 85.6793L424.398 84.4388Z" fill="#E42528"/>
<path d="M397.845 144.242L398.466 144.58C399.93 156.232 400.86 163.342 404.777 174.725C407.292 187.213 418.516 200.054 428.863 206.922C448.428 219.908 475.123 222.289 497.675 217.687C508.236 215.531 517.23 212.002 526.638 206.868C527.589 208.425 528.508 210.28 529.789 211.574C529.916 211.972 530.028 212.71 530.102 213.15C529.932 213.458 529.502 214.135 529.247 214.326C516.423 223.873 492.814 228.513 477.482 228.403C456.551 228.253 433.799 222.268 419.164 207.237C403.361 191.007 397.745 166.048 397.845 144.242Z" fill="#E42528"/>
<path d="M404.777 174.725C407.657 179.365 409.657 184.465 412.659 189.08C421.699 202.976 436.878 211.612 452.761 215.313C477.753 221.135 502.775 218.025 525.348 205.902C526.654 199.624 527.35 192.674 529.587 186.697L529.874 186.129C532.525 190.159 530.15 206.105 529.789 211.574C528.508 210.28 527.589 208.425 526.638 206.868C517.23 212.002 508.236 215.531 497.675 217.687C475.123 222.289 448.428 219.908 428.863 206.922C418.516 200.054 407.292 187.213 404.777 174.725Z" fill="white"/>
<path d="M529.874 186.129C532.525 190.159 530.15 206.105 529.789 211.574C528.508 210.28 527.589 208.425 526.638 206.868C527.828 200.831 529.863 192.801 529.587 186.697L529.874 186.129Z" fill="#E42528"/>
<path d="M523.01 58.8762C526.065 63.4125 522.197 82.7479 521.448 88.9768L514.452 146.189C511.163 141.742 513.787 129.757 514.574 124.181C517.639 102.478 520.465 80.6462 523.01 58.8762Z" fill="#E42528"/>
<path d="M424.398 84.4388L427.57 85.6793L425.558 93.6916C423.673 103.896 421.622 113.46 421.218 123.885C421.039 128.518 421.611 141.784 419.963 145.37C417.647 124.775 419.496 111.396 422.576 91.4869C423.197 89.1415 423.805 86.7923 424.398 84.4388Z" fill="#E42528"/>
<path d="M470.422 91.7356C470.932 83.6797 477.657 76.6544 485.971 77.1708C487.99 77.2957 490.46 78.1908 492.368 78.8852C494.918 83.829 498.801 95.8102 495.598 101.01C494.795 94.3419 493.037 82.9227 482.539 85.9577C477.269 87.4824 474.082 94.046 471.892 98.7911L471.552 97.0555L471.124 96.9567L470.655 99.7957C470.268 98.5483 470.452 93.4138 470.422 91.7356Z" fill="#E42528"/>
<path d="M466.172 139.451C462.531 130.56 467.433 101.147 470.422 91.7356C470.452 93.4138 470.268 98.5483 470.655 99.7957L471.124 96.9567L471.552 97.0555L471.892 98.7911C469.181 110.502 467.389 121.834 466.88 133.87C466.81 135.53 466.716 137.92 466.172 139.451Z" fill="#E42528"/>
<path d="M172.54 53.518C173.873 46.515 172.711 40.9169 175.244 31.5072C177.731 21.9181 184.016 13.7557 192.651 8.90046C207.63 0.292717 228.031 0.271361 243.346 8.10363C251.235 12.1381 255.001 18.1777 259.246 25.5979C268.459 38.1629 265.768 84.4829 265.875 101.485L265.875 150.73C265.855 162.262 266.354 173.913 264.744 185.208C261.707 206.516 245.368 220.018 224.217 221.001C199.866 222.664 178.873 214.45 173.531 188.521C171.214 177.272 171.764 168.851 171.841 157.502L172.173 117.686C172.235 102.798 171.649 87.8117 172.025 72.8916C172.182 66.6882 171.919 59.6305 172.54 53.518ZM203.375 183.489C211.251 192.564 233.332 190.15 234.976 176.725C235.986 168.474 235.499 158.523 235.544 150.071L235.731 91.0423C235.255 82.1592 235.29 73.3219 235.181 64.0861C235.262 53.4845 236.364 36.4198 221.557 35.4985C207.448 34.6205 202.451 43.3633 201.605 55.5537C201.345 80.2685 201.216 104.985 201.221 129.701C201.213 142.23 200.056 172.888 203.375 183.489Z" fill="#095BA6"/>
<path d="M259.246 25.5979C268.459 38.1629 265.768 84.4829 265.875 101.485L265.875 150.73C265.855 162.262 266.354 173.913 264.744 185.208C261.707 206.516 245.368 220.018 224.217 221.001C199.866 222.664 178.873 214.45 173.531 188.521C171.214 177.272 171.764 168.851 171.841 157.502L172.173 117.686C172.235 102.798 171.649 87.8117 172.025 72.8916C172.182 66.6882 171.919 59.6305 172.54 53.518C173.132 62.1481 172.898 71.9247 172.99 80.6935L173.246 146.952C173.35 155.834 173.228 164.786 173.703 173.65C173.883 177.001 174.578 179.943 174.879 183.138C183.334 204.768 195.901 211.249 219.296 211.012C230.967 210.894 242.074 207.883 250.33 199.199C255.228 193.981 258.559 187.49 259.944 180.469C262.517 167.863 261.624 138.074 261.622 123.614C261.871 94.0598 261.746 64.5032 261.246 34.9518C260.413 31.6181 259.766 29.0014 259.246 25.5979Z" fill="#E42528"/>
<path d="M261.246 34.9518C263.184 41.6612 262.404 87.5886 262.439 97.4295L262.518 146.805C262.513 169.561 265.67 195.709 241.166 207.889C238.854 209.038 236.459 210.035 233.959 210.734C212.313 215.956 183.097 212.283 175.687 187.495C175.277 186.094 174.96 184.595 174.879 183.138C183.334 204.768 195.901 211.249 219.296 211.012C230.967 210.894 242.074 207.883 250.33 199.199C255.228 193.981 258.559 187.49 259.944 180.469C262.517 167.863 261.624 138.074 261.622 123.614C261.871 94.0598 261.746 64.5031 261.246 34.9518Z" fill="white"/>
<path d="M200.128 178.633C198.129 174.642 197.853 171.158 197.853 166.742C197.857 141.039 197.752 115.415 197.829 89.7041C198.053 74.6341 197.33 59.7841 198.401 44.7231C199.237 32.9747 204.712 25.2856 217.374 25.0501C229.476 24.8252 236.145 31.3091 236.284 43.3708C236.854 48.9189 236.901 56.2491 236.565 61.8899C236.009 71.2139 236.74 81.8814 235.731 91.0423C235.255 82.1592 235.29 73.3219 235.181 64.0861C235.262 53.4845 236.364 36.4198 221.557 35.4985C207.448 34.6205 202.451 43.3633 201.605 55.5537C201.345 80.2685 201.216 104.985 201.221 129.701C201.213 142.23 200.056 172.888 203.375 183.489C203.304 183.436 203.235 183.381 203.163 183.33C201.467 182.111 200.927 180.505 200.128 178.633Z" fill="#E42528"/>
<path d="M200.128 178.633C198.129 174.642 197.853 171.158 197.853 166.742C197.857 141.039 197.752 115.415 197.829 89.7041C198.053 74.6341 197.33 59.7841 198.401 44.7231C199.237 32.9747 204.712 25.2856 217.374 25.0501C229.476 24.8252 236.145 31.3091 236.284 43.3708C234.637 37.198 233.226 32.6434 227.092 29.1266C222.736 26.6536 217.581 26.0017 212.747 27.3129C208.307 28.5178 204.544 31.4683 202.315 35.4923C199.291 40.9409 199.215 47.5616 199.248 53.6662C198.926 78.1754 199.301 103.174 199.12 127.761C199.018 141.483 198.343 166.036 200.128 178.633Z" fill="white"/>
<path d="M199.248 53.6662C200.565 60.5756 200.095 71.0205 200.1 78.3401L200.245 117.806C200.199 125.226 199.658 135.488 200.218 142.776C200.338 123.485 200.355 104.193 200.269 84.9021C200.266 81.0835 199.416 57.4896 201.605 55.5537C201.345 80.2685 201.216 104.985 201.221 129.701C201.213 142.23 200.056 172.888 203.375 183.489C203.304 183.436 203.235 183.381 203.163 183.33C201.467 182.111 200.927 180.505 200.128 178.633C198.343 166.036 199.018 141.483 199.12 127.761C199.301 103.174 198.926 78.1754 199.248 53.6662Z" fill="#E42528"/>
<path d="M51.9634 7.35893L52.5536 4.67431C54.7886 3.84609 79.0667 4.23906 82.9199 4.48279C85.1006 10.2615 87.5922 16.2196 89.1206 22.1897C93.318 38.5862 99.438 54.3711 103.095 70.8808C104.137 75.5871 106.972 80.7047 107.927 85.5348C111.081 99.2963 114.625 114.21 118.658 127.754C119.506 116.531 119.176 105.55 119.198 94.3079L119.155 36.254C119.164 28.1491 118.924 18.0018 119.452 10.0238C119.785 8.99119 119.781 5.61616 119.815 4.34972C123.664 4.31768 142.509 3.74122 144.537 5.03375L144.667 6.36289C145.624 7.59034 147.168 9.50204 147.262 11.0199C147.603 16.5628 147.452 22.4917 147.436 28.0567L147.327 61.8283L147.419 155.806C147.448 172.714 146.882 194.195 147.968 210.741L148.111 219.055L122.029 219.015L118.98 212.448C117.923 208.18 116.227 203.867 115.049 199.612C107.359 171.834 96.6187 143.622 89.7369 115.752C87.9434 110.17 81.4313 85.7696 80.1308 83.1516C79.8078 89.5596 80.1675 95.5776 80.0968 101.922C79.8758 121.754 80.5755 141.531 80.7412 161.383L80.8958 197.456C80.89 204.41 80.5181 212.299 81.1689 219.102C73.2453 219.056 62.6665 219.447 55.0808 219.011C52.798 215.87 50.8701 213.963 50.6305 210.085C51.0125 207.531 50.7766 198.004 50.7713 194.771L50.7065 160.922L50.7017 47.2003C50.6714 39.067 49.7035 13.2865 51.9634 7.35893Z" fill="#095BA6"/>
<path d="M144.667 6.36288C145.624 7.59034 147.168 9.50204 147.262 11.0199C147.603 16.5628 147.452 22.4917 147.436 28.0567L147.327 61.8283L147.419 155.806C147.448 172.714 146.882 194.195 147.968 210.741L148.111 219.055L122.029 219.015L118.98 212.448C117.923 208.18 116.227 203.867 115.049 199.612C107.359 171.834 96.6187 143.622 89.7369 115.752L90.0625 115.298L90.7972 116.184L92.0813 115.347C95.7921 126.361 99.1124 138.769 102.553 150.001C108.787 169.787 114.811 189.64 120.622 209.556L144.565 209.475L144.597 70.3979C144.654 50.2587 143.84 26.0934 144.667 6.36288Z" fill="#E42528"/>
<path d="M118.98 212.448C123.249 209.171 141.761 210.677 147.968 210.741L148.111 219.055L122.029 219.015L118.98 212.448Z" fill="#E42528"/>
<path d="M76.7621 75.4171C78.358 78.0181 79.1915 82.5593 80.1308 83.1516C79.8078 89.5596 80.1675 95.5776 80.0968 101.922C79.8758 121.754 80.5755 141.531 80.7412 161.383L80.8958 197.456C80.89 204.41 80.5181 212.299 81.1689 219.102C73.2453 219.056 62.6665 219.447 55.0808 219.011C52.798 215.87 50.8701 213.963 50.6305 210.085C51.4406 210.305 52.2657 210.462 53.0992 210.559C57.3195 211.009 72.306 211.624 75.9233 210.571C76.1804 210.496 76.76 209.898 76.9996 209.705C76.2957 205.607 76.5656 182.121 76.5592 177.099L76.8471 105.436C76.8424 95.2976 77.2392 85.5885 76.7621 75.4171Z" fill="#E42528"/>
<path d="M51.9634 7.35892C52.942 12.1493 52.7693 25.2469 52.7592 30.4678L52.7624 64.0516C52.7836 112.09 52.0819 161.572 52.8442 209.539C57.5266 209.344 73.1326 208.756 76.9996 209.705C76.76 209.898 76.1804 210.496 75.9233 210.571C72.306 211.624 57.3195 211.009 53.0992 210.559C52.2657 210.462 51.4406 210.305 50.6305 210.085C51.0125 207.531 50.7766 198.004 50.7713 194.771L50.7065 160.922L50.7017 47.2003C50.6714 39.067 49.7035 13.2865 51.9634 7.35892Z" fill="#E42528"/>
<path d="M119.452 10.0238C121.369 16.8901 120.673 69.2084 120.695 79.5067L120.845 118.185C120.86 124.614 121.091 133.477 120.677 139.701C119.898 135.618 119.201 131.873 118.658 127.754C119.506 116.531 119.176 105.55 119.198 94.3079L119.155 36.254C119.164 28.1491 118.924 18.0018 119.452 10.0238Z" fill="#E42528"/>
<path d="M76.7622 75.4171C76.7845 69.2902 76.5475 61.1765 76.8233 55.2509C81.5551 77.9379 86.501 93.5854 92.0813 115.347L90.7972 116.184L90.0625 115.298L89.7369 115.752C87.9434 110.17 81.4313 85.7696 80.1308 83.1516C79.1916 82.5593 78.358 78.0181 76.7622 75.4171Z" fill="#E42528"/>
<path d="M951.893 4.18492C955.596 4.34472 976.15 3.86139 977.648 4.82162C979.232 6.76653 982.079 9.94733 982.334 12.3433C983.03 18.888 982.817 26.2069 982.812 32.8017L982.871 68.1358L982.903 219.142C974.594 219.165 964.665 219.437 956.489 219.032C954.56 216.15 952.361 213.154 951.5 209.767C953.195 202.794 951.298 189.289 951.511 181.739C952.026 163.557 950.119 143.199 952.143 125.256C940.647 125.354 929.151 125.338 917.654 125.21C917.383 145.558 917.83 166.414 917.649 186.829C917.596 193.288 917.442 213.359 918.233 219.051C909.973 219.057 900.575 219.289 892.409 219.018C889.801 215.349 888.664 214.169 887.968 209.669C888.797 198.708 888.26 183.971 888.197 172.721L887.973 109.986C888.143 81.9436 888.096 53.8999 887.83 25.8585C887.745 19.4891 888.547 9.68877 888.207 4.31412C891.342 4.28681 911.688 3.79689 913.463 4.8425C914.446 6.21875 916.714 9.41561 916.687 11.1442C916.273 38.959 916.587 66.4512 917.203 94.2579C925.278 93.5986 943.298 94.1745 952.101 94.1889C950.905 79.8334 951.314 60.2606 951.49 45.868C951.633 33.908 950.741 15.6969 951.893 4.18492Z" fill="#095BA6"/>
<path d="M977.648 4.82162C979.232 6.76653 982.079 9.94734 982.334 12.3433C983.03 18.888 982.817 26.2069 982.812 32.8017L982.871 68.1358L982.902 219.142C974.594 219.165 964.665 219.437 956.489 219.032C954.56 216.15 952.361 213.154 951.5 209.767C953.912 209.293 973.6 209.579 977.377 209.602C977.069 199.369 977.053 188.719 977.154 178.481C977.723 120.785 975.832 62.4557 977.648 4.82162Z" fill="#E42528"/>
<path d="M913.144 117.143C926.192 117.24 939.239 117.266 952.287 117.219L952.143 125.256C940.647 125.354 929.151 125.338 917.654 125.21C917.383 145.558 917.83 166.414 917.649 186.829C917.596 193.288 917.442 213.359 918.233 219.051C909.973 219.057 900.575 219.289 892.409 219.018C889.801 215.349 888.664 214.169 887.968 209.669C896.064 209.916 905.064 209.645 913.303 209.689L913.144 117.143Z" fill="#E42528"/>
<path d="M913.463 4.8425C914.446 6.21876 916.714 9.41561 916.687 11.1442C916.273 38.959 916.587 66.4512 917.203 94.2579C915.705 94.174 915.338 94.1947 914.068 93.434C912.799 90.6667 913.75 14.5622 913.463 4.8425Z" fill="#E42528"/>
<path d="M778.068 174.098C778.626 165.645 778.122 152.202 778.122 143.348L778.143 83.7944C778.106 66.4002 776.475 42.0391 782.255 25.8175C793.209 -4.91384 847.391 -5.63285 860.805 23.4772C870.123 36.9641 868.269 59.5211 868.36 75.9808C860.317 76.026 850.982 76.2788 843.056 75.8501C841.776 73.9902 840.097 71.3966 838.684 69.72C838.546 65.1842 838.519 60.6452 838.604 56.1078C838.546 50.2587 838.881 43.2795 834.057 39.1689C825.573 31.935 809.136 35.1093 808.153 47.7836C806.926 63.6595 807.319 79.0504 807.223 94.9199C807.25 120.802 807.282 146.549 807.67 172.411C807.749 177.691 807.834 179.475 809.386 184.516C809.837 184.948 810.31 185.364 810.788 185.763C814.332 188.664 820.106 189.254 824.5 188.756C842.578 186.704 838.445 167.394 838.764 154.6C838.87 150.18 839.157 145.827 838.7 141.412C842.822 141.296 862.792 140.417 864.774 142.285L865.183 142.642C870.883 150.537 868.317 158.797 868.923 167.489C871.478 204.341 850.43 225.762 812.982 220.565C789.235 217.269 775.943 197.92 778.068 174.098Z" fill="#095BA6"/>
<path d="M864.774 142.285L865.183 142.642C870.883 150.537 868.317 158.797 868.923 167.489C871.478 204.341 850.43 225.762 812.982 220.565C789.235 217.269 775.943 197.92 778.068 174.098C778.446 175.334 778.998 176.689 779.11 177.974C781.107 185.023 781.537 189.449 786.048 195.823C791.642 203.771 800.96 208.812 810.453 210.112C831.204 212.955 850.531 209.358 859.822 188.849C867.409 172.11 862.07 158.36 864.774 142.285Z" fill="#E42528"/>
<path d="M864.774 142.285L865.183 142.642C865.31 161.499 867.972 186.801 853.623 201.153C838.169 216.608 804.881 216.921 789.278 201.573C783.689 196.07 779.11 186.106 779.104 178.301C779.104 178.192 779.104 178.083 779.11 177.974C781.107 185.023 781.537 189.449 786.048 195.823C791.642 203.771 800.96 208.812 810.453 210.112C831.204 212.955 850.531 209.358 859.822 188.849C867.409 172.11 862.07 158.36 864.774 142.285Z" fill="white"/>
<path d="M804.509 174.296C803.956 169.587 804.174 159.757 804.169 154.625L804.19 118.657L804.28 71.5486C804.27 53.7119 799.372 22.4567 827.007 27.5801C832.84 28.6613 835.953 33.0132 838.833 37.6144C839.125 39.4345 839.89 43.405 839.704 45.0573C839.449 47.2386 839.545 57.2744 839.173 58.2466L838.604 56.1078C838.546 50.2587 838.881 43.2795 834.057 39.1689C825.573 31.935 809.136 35.1093 808.153 47.7837C806.926 63.6595 807.319 79.0504 807.223 94.9199C807.25 120.802 807.282 146.549 807.67 172.411C807.749 177.691 807.834 179.475 809.386 184.516C806.299 182.099 805.295 177.94 804.509 174.296Z" fill="#E42528"/>
<path d="M860.805 23.4772C870.123 36.9641 868.269 59.5211 868.36 75.9808C860.317 76.026 850.982 76.2788 843.056 75.8501C841.776 73.9902 840.097 71.3966 838.684 69.72C838.546 65.1842 838.519 60.6452 838.604 56.1078L839.173 58.2466C839.545 57.2744 839.449 47.2386 839.704 45.0573C840.469 48.844 840.102 63.3843 840.06 67.7555C846.977 67.8203 855.657 68.0556 862.712 67.8553C863.127 67.782 863.839 67.5897 863.929 67.1126C866.723 52.3917 864.418 37.6898 860.805 23.4772Z" fill="#E42528"/>
<path d="M804.509 174.296C802.022 166.525 803.069 132.658 803.053 123.087L803.058 73.6507C803.096 64.3953 803.048 55.2063 803.457 45.9232C803.664 37.5926 806.512 27.9605 815.867 25.8285C826.965 23.3006 835.725 26.3188 838.833 37.6144C835.953 33.0132 832.84 28.6613 827.007 27.5801C799.372 22.4567 804.27 53.7119 804.28 71.5486L804.19 118.657L804.169 154.625C804.174 159.757 803.956 169.587 804.509 174.296Z" fill="white"/>
<path d="M360.133 4.37421C363.46 4.34265 383.265 3.88354 385.223 4.71872C386.318 6.97765 387.206 8.7915 388.062 11.1774C385.494 24.2061 382.988 36.5509 380.798 49.6643C379.737 55.1643 378.705 60.6702 377.703 66.1814C374.773 81.7215 372.279 104.28 369.02 118.099C368.784 119.556 368.525 121.47 368.208 122.871C366.72 130.999 364.689 143.985 362.532 151.63C362.506 158.368 360.544 170.498 358.632 176.86L354.807 202.788C354.028 208.113 352.897 213.647 352.852 219.035C340.605 219.051 328.212 219.438 315.982 218.974C314.149 215.588 312.693 212.667 312.335 208.758C311.127 203.853 310.752 198.632 309.935 193.64C308.069 182.622 306.266 171.594 304.527 160.555C300.562 138.514 296.927 116.415 293.622 94.2654C292.376 86.0979 290.54 76.9732 289.694 68.9651C289.359 68.5178 288.805 64.4075 288.67 63.5437C287.171 56.7867 285.941 47.9871 284.966 41.1022C283.744 32.4665 279.135 15.3265 282.807 7.48563L282.725 5.09926C284.477 3.66212 304.809 4.33606 308.566 4.36815C312.278 12.2873 312.457 20.5773 313.547 29.1995C314.998 40.5505 316.527 51.8913 318.135 63.2212C321.452 85.9784 325.259 109.125 328.225 131.924C330.011 145.658 327.377 152.445 331.536 167.292L334.363 169.241C334.628 167.753 334.804 166.219 334.995 164.718C336.748 150.956 338.986 137.261 341.1 123.546L354.946 37.8791C356.703 27.0536 358.039 14.9688 360.133 4.37421Z" fill="#095BA6"/>
<path d="M360.803 147.051C361.02 148.92 361.095 150.282 362.532 151.63C362.506 158.368 360.544 170.498 358.632 176.86L354.807 202.788C354.028 208.113 352.897 213.647 352.852 219.035C340.605 219.051 328.212 219.438 315.982 218.974C314.149 215.588 312.693 212.667 312.335 208.758C312.654 208.33 313.269 208.002 313.708 207.695L314.781 209.157C316.963 210.271 345.387 209.898 348.441 209.01C352.782 203.915 353.429 176.576 356.79 168.237L356.847 168.099C356.861 161.448 359.209 153.553 360.803 147.051Z" fill="#E42528"/>
<path d="M289.694 68.9651L290.217 68.5088C290.187 67.7422 290.177 67.1748 290.208 66.4013L291.261 66.0879L291.241 67.705L292.409 67.8931C293.638 72.745 294.221 79.0525 294.918 84.1371C295.976 91.6463 297.095 99.1475 298.274 106.639C300.752 122.674 305.109 144.186 306.56 159.859L304.527 160.555C300.562 138.514 296.927 116.415 293.622 94.2654C292.376 86.0979 290.54 76.9732 289.694 68.9651Z" fill="#E42528"/>
<path d="M288.67 63.5437C287.171 56.7867 285.941 47.9871 284.966 41.1022C283.744 32.4665 279.135 15.3265 282.807 7.48563C283.811 11.136 289.125 43.8828 289.186 47.7002C287.939 50.5191 289.892 56.8043 288.67 63.5437Z" fill="#E42528"/>
<path d="M374.366 67.1036C375.921 67.196 376.54 67.535 377.703 66.1814C374.773 81.7215 372.279 104.28 369.02 118.099C368.737 115.241 369.098 114.972 366.709 113.552C365.98 109.785 373.643 74.6946 374.366 67.1036Z" fill="#E42528"/>
<path d="M385.223 4.71872C386.318 6.97765 387.206 8.79149 388.062 11.1774C385.494 24.2061 382.988 36.5509 380.798 49.6643C380.729 48.555 380.847 47.0532 380.259 46.3371L379.432 49.3801C378.997 48.4706 379.966 45.5397 379.816 43.4102L378.802 42.6102C378.617 41.1073 384.385 7.29719 385.223 4.71872Z" fill="#E42528"/>
<path d="M366.709 113.552C369.098 114.972 368.737 115.241 369.02 118.099C368.784 119.556 368.525 121.47 368.208 122.871C366.72 130.999 364.688 143.985 362.532 151.63C361.095 150.282 361.02 148.92 360.803 147.051C361.899 143.522 364.954 119.177 365.976 117.955C366.006 116.53 366.407 114.962 366.709 113.552Z" fill="#E42528"/>
<path d="M366.709 113.552C369.098 114.972 368.737 115.241 369.02 118.099C368.784 119.556 368.525 121.47 368.208 122.871C366.08 121.593 366.755 120.585 365.976 117.955C366.006 116.53 366.407 114.962 366.709 113.552Z" fill="#E42528"/>
<path d="M306.56 159.859C307.759 166.83 314.457 203.33 313.708 207.695C313.269 208.002 312.654 208.33 312.335 208.758C311.127 203.853 310.752 198.632 309.935 193.64C308.069 182.622 306.266 171.594 304.527 160.555L306.56 159.859Z" fill="#E42528"/>
<path d="M378.802 42.6102L379.816 43.4102C379.966 45.5396 378.997 48.4706 379.432 49.3801L380.259 46.3371C380.847 47.0532 380.729 48.555 380.798 49.6643C379.737 55.1643 378.705 60.6702 377.703 66.1814C376.54 67.535 375.921 67.1961 374.366 67.1036C375.29 64.5446 378.131 46.5596 378.802 42.6102Z" fill="#E42528"/>
<path d="M288.67 63.5437C289.892 56.8043 287.939 50.5191 289.186 47.7002C289.712 50.407 292.508 65.6427 292.409 67.8931L291.241 67.705L291.261 66.0879L290.208 66.4013C290.177 67.1748 290.187 67.7422 290.217 68.5088L289.694 68.9651C289.359 68.5178 288.805 64.4075 288.67 63.5437Z" fill="#E42528"/>
<path d="M331.536 167.292L334.363 169.241C333.687 174.251 333.31 179.29 332.9 184.327C332.237 179.15 330.72 172.422 331.536 167.292Z" fill="white"/>
<path d="M681.36 4.32942L734.416 4.30068C741.396 4.3002 749.588 4.12877 756.617 4.55175C757.865 4.62666 757.86 5.00878 758.492 5.95011C762.253 11.9075 759.963 26.9441 760.909 35.5936C747.251 35.9429 723.727 36.6866 710.61 35.7506C710.477 43.2571 710.892 90.7049 709.675 93.6491C720.104 92.4522 738.421 94.633 748.834 93.5073C754.752 101.892 752.197 113.742 752.489 124.41L725.549 124.538C721.586 124.562 713.909 124.923 710.323 124.255C711.232 129.553 710.589 156.725 710.541 163.831C710.945 171.373 710.775 179.079 710.536 186.628C716.868 186.633 756.627 185.765 758.577 187.584C765.255 200.181 759.283 207.602 762.258 219.008L685.705 219.028C684.011 216.29 681.562 213.103 681.052 209.92C681.556 205.058 681.36 197.299 681.37 192.245L681.216 156.467L681.312 58.4267C681.296 39.9285 680.483 22.8442 681.36 4.32942Z" fill="#095BA6"/>
<path d="M758.184 209.683C758.083 202.691 757.27 194.426 758.577 187.584C765.255 200.181 759.283 207.602 762.258 219.008L685.705 219.028C684.011 216.29 681.562 213.103 681.052 209.92C688.547 208.575 697.86 209.573 705.537 209.583L758.184 209.683Z" fill="#E42528"/>
<path d="M757.546 28.0124C757.477 24.246 757.679 9.16486 758.492 5.9501C762.253 11.9075 759.963 26.9441 760.909 35.5936C747.251 35.9429 723.727 36.6866 710.61 35.7506C710.477 43.2571 710.892 90.7049 709.675 93.6491C708.777 93.6826 707.97 93.4531 707.099 93.2581C707.343 71.6293 706.594 49.2308 706.536 27.4161C721.177 27.3874 737.215 27.0696 751.734 27.6254L751.469 27.6908C752.696 28.0108 756.107 27.9851 757.546 28.0124Z" fill="#E42528"/>
<path d="M748.579 96.0445L748.834 93.5073C754.752 101.892 752.197 113.742 752.489 124.41L725.549 124.538C721.586 124.562 713.909 124.923 710.323 124.255C711.232 129.553 710.589 156.725 710.541 163.831C710.945 171.373 710.775 179.079 710.536 186.628L707.008 187.319C707.619 184.698 707.402 181.612 707.471 178.916C707.194 158.699 707.391 138.127 707.402 117.884L748.807 117.965C749.498 111.543 748.892 102.616 748.579 96.0445Z" fill="#E42528"/>
<path d="M708.103 160.541C708.007 156.587 708.145 153.302 708.352 149.349C707.779 150.27 707.88 152.945 708.108 154.059L708.544 154.02C710.972 150.77 709.601 130.016 709.314 124.799L710.323 124.255C711.232 129.553 710.589 156.725 710.541 163.831C710.945 171.373 710.775 179.079 710.536 186.628L707.008 187.319C707.619 184.698 707.402 181.612 707.471 178.916C709.288 173.979 708.183 165.836 708.103 160.541Z" fill="#E42528"/>
<path d="M748.212 115.887C748.239 109.272 748.356 102.657 748.579 96.0445C748.892 102.616 749.498 111.543 748.807 117.965L707.402 117.884C707.391 138.127 707.194 158.699 707.471 178.916C707.402 181.612 707.619 184.698 707.008 187.319C705.675 185.889 706.27 122.835 706.275 115.945L748.212 115.887Z" fill="white"/>
<path d="M576.523 4.34722C584.938 4.34286 662.118 3.87462 663.988 4.70576L664.386 7.43197L664.955 7.59964C667.138 9.8175 666.702 13.9924 666.676 17.24L666.527 28.6481L667.016 35.6607L635.662 35.8166C635.502 44.0236 635.619 52.6834 635.178 60.8035C635.555 69.7105 635.258 79.8361 635.284 88.8429C635.401 109.439 635.391 130.036 635.242 150.632C636.331 173.351 635.587 196.282 636.257 219.056C628.027 218.98 619.788 219.114 611.559 218.973C609.843 215.731 608.467 213.138 608.164 209.415C608.605 203.98 608.138 195.02 608.238 189.054C608.626 166.94 607.776 144.781 607.946 122.627C608.111 101.748 608.6 80.8465 608.573 59.9748C608.568 55.4374 608.977 38.4702 608.084 35.5357C606.119 36.4042 581.936 36.0832 577.559 36.1036C575.009 29.0968 573.962 18.6381 575.63 11.4837C576.842 9.52749 576.565 6.64466 576.523 4.34722Z" fill="#095BA6"/>
<path d="M664.386 7.43198L664.955 7.59964C667.138 9.8175 666.703 13.9924 666.676 17.24L666.527 28.6481L667.016 35.6607L635.662 35.8166C635.502 44.0236 635.619 52.6834 635.178 60.8035C635.555 69.7105 635.258 79.8361 635.284 88.8429C635.401 109.439 635.391 130.036 635.242 150.632C636.331 173.351 635.587 196.282 636.257 219.056C628.028 218.98 619.788 219.114 611.559 218.973C609.843 215.731 608.467 213.138 608.164 209.415L608.446 209.518C611.516 208.478 628.559 208.962 632.485 209.017C631.975 189.927 632.442 168.615 632.453 149.383L632.426 26.8562C642.626 26.537 653.581 26.726 663.839 26.7254C663.786 22.0077 663.563 11.5278 664.386 7.43198Z" fill="white"/>
<path d="M633.489 150.312L635.242 150.632C636.331 173.351 635.587 196.282 636.257 219.056C628.028 218.98 619.788 219.114 611.559 218.973C609.843 215.731 608.467 213.138 608.164 209.415L608.446 209.518C611.633 211.633 628.213 210.577 633.042 210.602C633.924 190.564 633.138 170.377 633.489 150.312Z" fill="#E42528"/>
<path d="M664.955 7.59963C667.138 9.81749 666.702 13.9924 666.676 17.24L666.527 28.6481L667.016 35.6607L635.662 35.8166C635.502 44.0236 635.619 52.6834 635.178 60.8035L634.424 61.755C633.962 61.2832 633.749 59.9955 633.558 59.2491C633.356 51.3977 633.749 35.3001 632.963 28.5869C643.328 28.8195 654.431 28.2401 664.668 28.7558L664.955 7.59963Z" fill="#E42528"/>
<path d="M633.558 59.2491C633.749 59.9955 633.962 61.2832 634.424 61.755L635.178 60.8035C635.555 69.7105 635.258 79.8361 635.284 88.8429C635.401 109.439 635.391 130.036 635.242 150.632L633.489 150.312C633.096 120.33 633.414 89.278 633.558 59.2491Z" fill="#E42528"/>
<path d="M575.63 11.4837C576.385 15.5217 576.225 23.0225 576.178 27.3252L576.757 28.3687C579.402 29.1112 603.032 28.7049 607.707 28.6718C607.686 30.4711 607.479 33.6568 608.063 35.2179L608.084 35.5357C606.119 36.4042 581.936 36.0832 577.559 36.1036C575.009 29.0968 573.962 18.6381 575.63 11.4837Z" fill="#E42528"/>
<path d="M576.177 27.3252C580.443 26.2367 602.841 26.7823 608.61 26.8485C608.578 28.8417 608.679 33.5723 608.063 35.2179C607.479 33.6568 607.686 30.4711 607.707 28.6718C603.032 28.7049 579.402 29.1112 576.757 28.3687L576.177 27.3252Z" fill="white"/>
<path d="M1.0399 7.43755C1.17324 6.17573 1.19715 5.65792 1.64552 4.47743C4.90155 4.16229 24.8627 3.8462 26.5643 5.18123C31.939 14.8671 28.5199 42.6997 29.4256 54.7924C29.6286 57.4997 29.9723 75.5245 29.5266 77.9958C30.0812 92.3486 30.0998 107.99 29.933 122.346C29.5707 153.594 31.4295 185.285 30.0716 216.489C30.2884 217.377 30.3564 217.548 29.9638 218.423C27.0584 219.764 8.67768 219.044 4.20349 218.974C3.05493 217.28 1.54193 215.349 0.303054 213.678C-0.307352 202.972 0.190958 188.525 0.203708 177.515L0.193616 112.272L0.186179 43.3551C0.193616 37.6328 -0.338164 11.5494 1.0399 7.43755Z" fill="#095BA6"/>
<path d="M25.9794 95.177L26.0187 33.5241C26.0549 26.973 25.7664 10.6322 26.5643 5.18123C31.939 14.8671 28.5199 42.6998 29.4256 54.7924C29.6286 57.4997 29.9723 75.5245 29.5266 77.9958C30.0812 92.3486 30.0998 107.99 29.933 122.346C29.5707 153.594 31.4295 185.285 30.0717 216.489C28.9364 214.93 28.1475 212.999 27.2921 211.271C18.9701 209.878 10.5195 211.731 2.22565 209.724C8.02424 208.75 19.895 209.237 26.0055 209.38C25.2835 172.032 26.2498 132.78 25.9794 95.177Z" fill="#E42528"/>
<path d="M1.0399 7.43755C2.43762 12.9076 1.84049 50.3464 1.82881 59.2448L1.82508 172.246C1.81499 177.9 1.49996 206.429 2.22565 209.724C10.5195 211.731 18.9701 209.878 27.2921 211.271C28.1475 212.999 28.9364 214.93 30.0716 216.489C30.2884 217.377 30.3564 217.548 29.9638 218.423C27.0584 219.764 8.67768 219.044 4.20349 218.974C3.05493 217.28 1.54193 215.349 0.303054 213.678C-0.307352 202.972 0.190958 188.525 0.203708 177.515L0.193616 112.272L0.186179 43.3551C0.193616 37.6328 -0.338164 11.5494 1.0399 7.43755Z" fill="#E42528"/>
</svg>
