<svg width="167" height="229" viewBox="0 0 167 229" fill="none" xmlns="http://www.w3.org/2000/svg">
<path d="M0.0013058 144.242C0.624462 140.071 0.0640016 132.602 0.155908 127.959C1.32678 68.8042 29.7874 -1.40574 99.3264 0.0214062C154.003 1.14341 165.547 35.0215 164.506 83.396L165.143 83.6558C166.333 85.0094 166.227 86.1654 166.142 87.9871C164.946 113.975 159.937 148.16 139.675 165.97C131.541 173.179 120.89 176.877 110.047 176.257C99.3902 175.558 95.969 171.516 92.4787 162.294C86.7624 169.662 81.1205 175.239 71.1931 176.534C64.8505 177.342 58.4489 175.572 53.4217 171.621C45.259 165.225 42.8365 152.813 43.5978 142.941C43.9718 141.042 44.1365 129.979 44.4887 126.527C46.3826 108.319 48.9741 88.6203 57.4576 72.2185C66.8352 54.088 94.0724 48.8249 100.23 72.7885C101.595 68.2155 102.206 62.1433 102.753 57.3392C106.562 57.4428 122.16 56.8691 124.789 57.7998L125.166 58.8762C128.221 63.4125 124.354 82.7479 123.605 88.9768L116.608 146.189C120.661 150.786 128.099 145.309 130.984 141.959C143.877 126.985 146.22 100.224 145.455 81.5207C144.005 65.2936 143.792 50.5297 130.314 38.9179C120.481 30.4494 103.587 27.9079 91.108 29.1936C73.9508 30.9615 58.0122 37.1742 47.0329 50.9318C38.3501 61.8129 34.0502 72.7269 29.7263 85.6793L27.7145 93.6916C25.8296 103.896 23.7785 113.46 23.3747 123.885C23.1952 128.518 23.7673 141.784 22.1199 145.37C21.9403 152.466 25.6134 164.702 28.6973 171.306C46.1074 208.59 103.454 205.611 131.595 184.405C132.036 185.049 131.998 185.369 132.03 186.129C134.681 190.159 132.306 206.105 131.945 211.574C132.073 211.972 132.184 212.71 132.259 213.15C132.089 213.458 131.658 214.135 131.403 214.326C118.579 223.873 94.9702 228.513 79.6384 228.403C58.7076 228.253 35.9553 222.268 21.3209 207.237C5.51783 191.007 -0.0985692 166.048 0.0013058 144.242ZM68.3286 139.451C70.3213 148.939 81.6996 150.217 87.8249 143.761C95.629 135.446 95.5334 123.258 96.8562 112.63C97.3077 108.995 97.7965 104.595 97.754 101.01C96.9518 94.3419 95.1934 82.9226 84.6959 85.9577C79.4259 87.4824 76.2383 94.046 74.048 98.7911C71.3376 110.502 69.5457 121.834 69.0367 133.87C68.9666 135.53 68.8726 137.92 68.3286 139.451Z" fill="#095BA6"/>
<path d="M164.506 83.396L165.143 83.6558C166.333 85.0094 166.227 86.1654 166.142 87.9871C164.946 113.975 159.937 148.16 139.675 165.97C131.541 173.179 120.89 176.877 110.047 176.257C99.3902 175.558 95.969 171.516 92.4787 162.294C86.7624 169.662 81.1205 175.239 71.193 176.534C64.8504 177.342 58.4489 175.572 53.4217 171.621C45.259 165.225 42.8365 152.813 43.5978 142.941C44.8399 144.939 45.1793 147.427 45.8259 149.647C48.6319 159.285 52.2072 163.792 62.0954 166.507C74.7668 169.989 87.1767 160.877 92.8877 150.346C93.6421 152.902 94.7949 158.125 95.6662 160.208C102.147 165.597 108.645 166.955 116.948 165.796C149.168 161.303 160.218 122.914 162.97 95.3906C163.326 91.8492 163.629 86.7131 164.506 83.396Z" fill="#E42528"/>
<path d="M164.506 83.396L165.143 83.6558C165.547 88.1603 164.49 92.9909 163.964 97.6478C160.813 125.601 148.956 163.91 116.024 167.602C108.921 168.399 99.3318 167.327 95.6662 160.208C102.147 165.597 108.645 166.955 116.948 165.796C149.168 161.303 160.218 122.914 162.97 95.3906C163.326 91.8492 163.629 86.7131 164.506 83.396Z" fill="white"/>
<path d="M26.5542 84.4388C26.585 84.0925 26.6026 83.9496 26.6759 83.6037C30.9418 62.4292 41.9026 41.6695 60.3402 29.7172C81.8749 15.7559 122.951 14.254 137.89 38.7241C144.361 49.3285 148.228 69.3928 145.455 81.5207C144.005 65.2937 143.792 50.5297 130.314 38.9179C120.481 30.4494 103.587 27.9079 91.108 29.1936C73.9508 30.9615 58.0122 37.1742 47.0329 50.9318C38.3501 61.8129 34.0502 72.7269 29.7263 85.6793L26.5542 84.4388Z" fill="#E42528"/>
<path d="M0.0013058 144.242L0.622892 144.58C2.08649 156.232 3.01616 163.342 6.93359 174.725C9.44853 187.213 20.6728 200.054 31.0194 206.922C50.5843 219.908 77.2796 222.289 99.8312 217.687C110.392 215.531 119.386 212.002 128.795 206.868C129.746 208.425 130.665 210.28 131.945 211.574C132.073 211.972 132.184 212.71 132.259 213.15C132.089 213.458 131.658 214.135 131.403 214.326C118.579 223.873 94.9702 228.513 79.6384 228.403C58.7076 228.253 35.9553 222.268 21.3209 207.237C5.51783 191.007 -0.0985692 166.048 0.0013058 144.242Z" fill="#E42528"/>
<path d="M6.93359 174.725C9.8135 179.365 11.8131 184.465 14.8152 189.08C23.855 202.976 39.0349 211.612 54.9177 215.313C79.9093 221.135 104.931 218.025 127.504 205.902C128.811 199.624 129.507 192.674 131.743 186.697L132.03 186.129C134.681 190.159 132.306 206.105 131.945 211.574C130.665 210.28 129.746 208.425 128.795 206.868C119.386 212.002 110.392 215.531 99.8312 217.687C77.2796 222.289 50.5843 219.908 31.0194 206.922C20.6728 200.054 9.44853 187.213 6.93359 174.725Z" fill="white"/>
<path d="M132.03 186.129C134.681 190.159 132.306 206.105 131.945 211.574C130.665 210.28 129.746 208.425 128.795 206.868C129.985 200.831 132.02 192.801 131.743 186.697L132.03 186.129Z" fill="#E42528"/>
<path d="M125.166 58.8762C128.221 63.4125 124.354 82.7479 123.605 88.9768L116.608 146.189C113.32 141.742 115.944 129.757 116.73 124.181C119.795 102.479 122.622 80.6463 125.166 58.8762Z" fill="#E42528"/>
<path d="M26.5542 84.4388L29.7263 85.6793L27.7145 93.6916C25.8296 103.896 23.7785 113.46 23.3747 123.885C23.1952 128.518 23.7673 141.784 22.1199 145.37C19.8031 124.775 21.6524 111.396 24.7321 91.4869C25.3536 89.1415 25.9614 86.7923 26.5542 84.4388Z" fill="#E42528"/>
<path d="M72.5786 91.7356C73.0881 83.6797 79.8137 76.6545 88.1277 77.1708C90.1465 77.2957 92.6168 78.1908 94.524 78.8852C97.074 83.829 100.957 95.8103 97.754 101.01C96.9518 94.3419 95.1934 82.9227 84.6959 85.9577C79.4259 87.4824 76.2384 94.046 74.048 98.7911L73.7086 97.0555L73.2804 96.9567L72.8113 99.7957C72.4245 98.5483 72.6083 93.4138 72.5786 91.7356Z" fill="#E42528"/>
<path d="M68.3286 139.451C64.6874 130.56 69.5898 101.147 72.5786 91.7356C72.6083 93.4138 72.4245 98.5483 72.8113 99.7957L73.2804 96.9567L73.7086 97.0555L74.048 98.7911C71.3376 110.502 69.5457 121.834 69.0368 133.87C68.9666 135.53 68.8726 137.92 68.3286 139.451Z" fill="#E42528"/>
</svg>
